{
  "accessors": [
    {
      "bufferView": 2,
      "componentType": 5126,
      "count": 30983,
      "max": [
        0.5564190149307251,
        0.12109819799661636,
        0.5851179957389832
      ],
      "min": [
        -0.6012018918991089,
        -0.11958939582109451,
        -0.584867537021637
      ],
      "type": "VEC3"
    },
    {
      "bufferView": 2,
      "byteOffset": 371796,
      "componentType": 5126,
      "count": 30983,
      "max": [
        0.9995429515838623,
        0.9999995231628418,
        0.9998604655265808
      ],
      "min": [
        -0.9997754693031311,
        -0.9918269515037537,
        -0.9998798370361328
      ],
      "type": "VEC3"
    },
    {
      "bufferView": 1,
      "componentType": 5126,
      "count": 30983,
      "max": [
        0.9985676407814026,
        0.9999951720237732
      ],
      "min": [
        3.820471465587616e-05,
        1.8555670976638794e-05
      ],
      "type": "VEC2"
    },
    {
      "bufferView": 0,
      "componentType": 5125,
      "count": 149997,
      "type": "SCALAR"
    }
  ],
  "asset": {
    "extras": {
      "author": "alban (https://sketchfab.com/alban)",
      "license": "CC-BY-NC-SA-4.0 (http://creativecommons.org/licenses/by-nc-sa/4.0/)",
      "source": "https://sketchfab.com/3d-models/cheese-board-straight-upload-from-photocatch-ce8eda2ef00344819c809a03c946ef8f",
      "title": "Cheese board, straight upload from PhotoCatch"
    },
    "generator": "Sketchfab-11.31.0",
    "version": "2.0"
  },
  "bufferViews": [
    {
      "buffer": 0,
      "byteLength": 599988,
      "name": "floatBufferViews",
      "target": 34963
    },
    {
      "buffer": 0,
      "byteLength": 247864,
      "byteOffset": 599988,
      "byteStride": 8,
      "name": "floatBufferViews",
      "target": 34962
    },
    {
      "buffer": 0,
      "byteLength": 743592,
      "byteOffset": 847852,
      "byteStride": 12,
      "name": "floatBufferViews",
      "target": 34962
    }
  ],
  "buffers": [
    {
      "byteLength": 1591444,
      "uri": "scene.bin"
    }
  ],
  "extensionsUsed": [
    "KHR_materials_unlit"
  ],
  "images": [
    {
      "uri": "textures/material_baseColor.png"
    }
  ],
  "materials": [
    {
      "extensions": {
        "KHR_materials_unlit": {}
      },
      "name": "material",
      "pbrMetallicRoughness": {
        "baseColorTexture": {
          "index": 0
        },
        "metallicFactor": 0.0
      }
    }
  ],
  "meshes": [
    {
      "name": "g0",
      "primitives": [
        {
          "attributes": {
            "NORMAL": 1,
            "POSITION": 0,
            "TEXCOORD_0": 2
          },
          "indices": 3,
          "material": 0,
          "mode": 4
        }
      ]
    }
  ],
  "nodes": [
    {
      "children": [
        1
      ],
      "matrix": [
        0.2844711961009274,
        -0.005076408386919917,
        0.0001723948378979003,
        0.0,
        8.547201216676983e-05,
        -0.004871094916492783,
        -0.28447482522152967,
        0.0,
        0.005078615642660045,
        0.2844295460065389,
        -0.004868793329054758,
        0.0,
        -1.7005108020384796e-05,
        -0.00040140553028322756,
        2.650284477567757e-05,
        1.0
      ],
      "name": "Sketchfab_model"
    },
    {
      "children": [
        2
      ],
      "matrix": [
        1.0,
        0.0,
        0.0,
        0.0,
        0.0,
        2.220446049250313e-16,
        1.0,
        0.0,
        0.0,
        -1.0,
        2.220446049250313e-16,
        0.0,
        0.0,
        0.0,
        0.0,
        1.0
      ],
      "name": "USDRoot"
    },
    {
      "children": [
        3
      ],
      "name": "baked_mesh"
    },
    {
      "children": [
        4
      ],
      "name": "Geom"
    },
    {
      "mesh": 0,
      "name": "g0"
    }
  ],
  "samplers": [
    {
      "magFilter": 9729,
      "minFilter": 9987,
      "wrapS": 10497,
      "wrapT": 10497
    }
  ],
  "scene": 0,
  "scenes": [
    {
      "name": "Sketchfab_Scene",
      "nodes": [
        0
      ]
    }
  ],
  "textures": [
    {
      "sampler": 0,
      "source": 0
    }
  ]
}
